<mxfile host="Electron" agent="Mozilla/5.0 (Windows NT 10.0; Win64; x64) AppleWebKit/537.36 (KHTML, like Gecko) draw.io/26.2.2 Chrome/134.0.6998.178 Electron/35.1.2 Safari/537.36" version="26.2.2">
  <diagram name="Page-1" id="c7558073-3199-34d8-9f00-42111426c3f3">
    <mxGraphModel dx="2366" dy="1011" grid="1" gridSize="10" guides="1" tooltips="1" connect="1" arrows="1" fold="1" page="1" pageScale="1" pageWidth="826" pageHeight="1169" background="none" math="0" shadow="0">
      <root>
        <mxCell id="0" />
        <mxCell id="1" parent="0" />
        <mxCell id="Nzy61xiK_Wry65fHq-do-98" value="" style="rounded=1;whiteSpace=wrap;html=1;arcSize=6;fillColor=#dae8fc;strokeColor=#6c8ebf;fontColor=#000000;" parent="1" vertex="1">
          <mxGeometry x="-506" y="550" width="730" height="320" as="geometry" />
        </mxCell>
        <mxCell id="t6GLwA7AJKDqOUCnaVTW-121" value="" style="rounded=1;whiteSpace=wrap;html=1;arcSize=6;fillColor=#dae8fc;strokeColor=#6c8ebf;" parent="1" vertex="1">
          <mxGeometry x="305" y="70" width="759" height="520" as="geometry" />
        </mxCell>
        <mxCell id="t6GLwA7AJKDqOUCnaVTW-120" value="" style="rounded=1;whiteSpace=wrap;html=1;arcSize=6;fillColor=#dae8fc;strokeColor=#6c8ebf;fontColor=#000000;" parent="1" vertex="1">
          <mxGeometry x="-66" y="170" width="360" height="370" as="geometry" />
        </mxCell>
        <mxCell id="2" value="&lt;p style=&quot;margin: 0px; margin-top: 4px; text-align: center; text-decoration: underline;&quot;&gt;&lt;span style=&quot;background-color: transparent;&quot;&gt;Coletar em Docs:&lt;/span&gt;&lt;/p&gt;&lt;ul&gt;&lt;li style=&quot;text-align: left;&quot;&gt;&lt;span style=&quot;background-color: transparent;&quot;&gt;atividades&lt;/span&gt;&lt;/li&gt;&lt;li style=&quot;text-align: left;&quot;&gt;&lt;span style=&quot;background-color: transparent;&quot;&gt;solicitações&lt;/span&gt;&lt;/li&gt;&lt;li style=&quot;text-align: left;&quot;&gt;&lt;span style=&quot;background-color: transparent;&quot;&gt;atualizações&lt;/span&gt;&lt;/li&gt;&lt;li style=&quot;text-align: left;&quot;&gt;&lt;span style=&quot;background-color: transparent;&quot;&gt;próximos passos&lt;/span&gt;&lt;/li&gt;&lt;/ul&gt;&lt;br&gt;&lt;p&gt;&lt;/p&gt;" style="verticalAlign=middle;align=center;overflow=fill;fontSize=12;fontFamily=Helvetica;html=1;rounded=1;fontStyle=1;strokeWidth=3;fillColor=#008a00;strokeColor=#005700;fontColor=#FFFFFF;" parent="1" vertex="1">
          <mxGeometry x="94" y="330" width="151" height="140" as="geometry" />
        </mxCell>
        <mxCell id="3" value="Word" style="whiteSpace=wrap;align=center;verticalAlign=middle;fontStyle=1;strokeWidth=3;fillColor=#e3c800;fontColor=#000000;strokeColor=#B09500;" parent="1" vertex="1">
          <mxGeometry x="120" y="210" width="90" height="60" as="geometry" />
        </mxCell>
        <mxCell id="4" value="PDF" style="whiteSpace=wrap;align=center;verticalAlign=middle;fontStyle=1;strokeWidth=3;fillColor=#e3c800;fontColor=#000000;strokeColor=#B09500;" parent="1" vertex="1">
          <mxGeometry x="-41" y="370" width="90" height="60" as="geometry" />
        </mxCell>
        <mxCell id="Nzy61xiK_Wry65fHq-do-108" style="edgeStyle=orthogonalEdgeStyle;rounded=0;orthogonalLoop=1;jettySize=auto;html=1;strokeWidth=3;startArrow=classic;startFill=1;strokeColor=#b85450;fillColor=#f8cecc;gradientColor=#ea6b66;fontColor=#000000;" parent="1" source="5" target="7" edge="1">
          <mxGeometry relative="1" as="geometry" />
        </mxCell>
        <mxCell id="5" value="SahrePoint Centralizado" style="shape=process;whiteSpace=wrap;align=center;verticalAlign=middle;size=0.0475;fontStyle=1;strokeWidth=3;fillColor=#f8cecc;gradientColor=#ea6b66;strokeColor=#b85450;fontColor=#000000;" parent="1" vertex="1">
          <mxGeometry x="583.9999999999999" y="705" width="400" height="50" as="geometry" />
        </mxCell>
        <mxCell id="Nzy61xiK_Wry65fHq-do-100" style="edgeStyle=orthogonalEdgeStyle;rounded=0;orthogonalLoop=1;jettySize=auto;html=1;exitX=0.75;exitY=1;exitDx=0;exitDy=0;entryX=0;entryY=0.5;entryDx=0;entryDy=0;strokeColor=#82b366;strokeWidth=4;fillColor=#d5e8d4;gradientColor=#97d077;fontColor=#000000;" parent="1" source="7" target="10" edge="1">
          <mxGeometry relative="1" as="geometry">
            <Array as="points">
              <mxPoint x="441" y="915" />
            </Array>
          </mxGeometry>
        </mxCell>
        <mxCell id="Nzy61xiK_Wry65fHq-do-103" style="edgeStyle=orthogonalEdgeStyle;rounded=0;orthogonalLoop=1;jettySize=auto;html=1;entryX=0.5;entryY=0;entryDx=0;entryDy=0;strokeWidth=3;fontColor=#000000;strokeColor=#CCCC00;" parent="1" source="7" target="Nzy61xiK_Wry65fHq-do-87" edge="1">
          <mxGeometry relative="1" as="geometry" />
        </mxCell>
        <mxCell id="7" value="&lt;p style=&quot;margin: 0px; margin-top: 4px; text-align: center; text-decoration: underline;&quot;&gt;&lt;strong&gt;Main&lt;/strong&gt;&lt;/p&gt;&lt;hr&gt;&lt;p style=&quot;margin: 0px; margin-left: 8px;&quot;&gt;&lt;span style=&quot;background-color: transparent;&quot;&gt;Orquestrar as&lt;br&gt;tasks de forma apropriada&lt;br&gt;-------------&lt;br&gt;Utilizar Celery para garantir&lt;br&gt;multithreading e poder escalonar&lt;br&gt;posteriormente (no momento em&amp;nbsp;&lt;br&gt;que houver outros modulos)&lt;br&gt;--------------&lt;br&gt;Centralizar a ativação de tarefas&lt;/span&gt;&lt;/p&gt;" style="verticalAlign=middle;align=center;overflow=fill;fontSize=12;fontFamily=Helvetica;html=1;rounded=1;fontStyle=1;strokeWidth=3;fillColor=#e3c800;strokeColor=#B09500;fontColor=#000000;" parent="1" vertex="1">
          <mxGeometry x="264" y="630" width="236.5" height="200" as="geometry" />
        </mxCell>
        <mxCell id="G-wLNNY91AZwd_SBp9Xe-106" style="edgeStyle=orthogonalEdgeStyle;rounded=0;orthogonalLoop=1;jettySize=auto;html=1;strokeWidth=3;startArrow=classic;startFill=1;fontColor=#000000;strokeColor=#CCCC00;" parent="1" source="8" target="G-wLNNY91AZwd_SBp9Xe-97" edge="1">
          <mxGeometry relative="1" as="geometry" />
        </mxCell>
        <mxCell id="8" value="&lt;p style=&quot;margin: 0px; margin-top: 4px; text-align: center; text-decoration: underline;&quot;&gt;&lt;strong&gt;Microsoft API&lt;/strong&gt;&lt;/p&gt;&lt;hr&gt;&lt;p style=&quot;margin: 0px; margin-left: 8px;&quot;&gt;&lt;br&gt;&lt;br&gt;Coletar informações do site&lt;br&gt;especifico do cliente&lt;br&gt;-----------&lt;br&gt;Receber dados provenientes&lt;br&gt;dos coletores de documentos&lt;br&gt;-----------&lt;br&gt;Organizar as informações&lt;br&gt;&lt;/p&gt;&lt;p style=&quot;margin: 0px; margin-left: 8px;&quot;&gt;----------&lt;/p&gt;&lt;p style=&quot;margin: 0px; margin-left: 8px;&quot;&gt;Atualizar o site&lt;br&gt;apresentando as infos&amp;nbsp;&lt;br&gt;coletadas&lt;/p&gt;" style="verticalAlign=middle;align=center;overflow=fill;fontSize=12;fontFamily=Helvetica;html=1;rounded=1;fontStyle=1;strokeWidth=3;fillColor=#008a00;strokeColor=#005700;fontColor=#FFFFFF;" parent="1" vertex="1">
          <mxGeometry x="347.5" y="200" width="179" height="270" as="geometry" />
        </mxCell>
        <mxCell id="KsxO16agAyIeRvrTX7ZI-98" style="edgeStyle=orthogonalEdgeStyle;rounded=0;orthogonalLoop=1;jettySize=auto;html=1;strokeWidth=3;entryX=0;entryY=0.5;entryDx=0;entryDy=0;fontColor=#000000;strokeColor=#CCCC00;" parent="1" source="9" target="7" edge="1">
          <mxGeometry relative="1" as="geometry">
            <mxPoint x="504" y="730" as="targetPoint" />
          </mxGeometry>
        </mxCell>
        <mxCell id="9" value="&lt;p style=&quot;margin: 0px; margin-top: 4px; text-align: center; text-decoration: underline;&quot;&gt;&lt;strong&gt;&amp;nbsp;ZeeV&lt;/strong&gt;&lt;/p&gt;&lt;hr&gt;&lt;p style=&quot;margin: 0px; margin-left: 8px;&quot;&gt;Coletar chamados&amp;nbsp;&lt;br&gt;dos clientes&lt;br&gt;-------------------&lt;br&gt;Categorizar&lt;br&gt;(tipo de chamado,&lt;br&gt;prioridade, datas )&lt;br&gt;-------------------&lt;br&gt;Transferir chamados &lt;br&gt;para SharePoint&lt;/p&gt;" style="verticalAlign=middle;align=center;overflow=fill;fontSize=12;fontFamily=Helvetica;html=1;rounded=1;fontStyle=1;strokeWidth=3;fillColor=#008a00;strokeColor=#005700;fontColor=#FFFFFF;" parent="1" vertex="1">
          <mxGeometry x="-61" y="620" width="190" height="220" as="geometry" />
        </mxCell>
        <mxCell id="10" value="&lt;p style=&quot;margin: 0px; margin-top: 4px; text-align: center; text-decoration: underline;&quot;&gt;&lt;strong&gt;E-mail&lt;br&gt;&lt;/strong&gt;&lt;/p&gt;&lt;hr&gt;&lt;p style=&quot;margin: 0px; margin-left: 8px;&quot;&gt;Para o futuro planejo&lt;br&gt;conectar toda essa&amp;nbsp;&lt;br&gt;estrutura a um e-mail&lt;br&gt;&lt;br&gt;Para que, dessa forma&lt;br&gt;possamos enviar alertas&lt;br&gt;aos analistas e outros&amp;nbsp;&lt;br&gt;interessados&amp;nbsp;&lt;/p&gt;" style="verticalAlign=middle;align=center;overflow=fill;fontSize=12;fontFamily=Helvetica;html=1;rounded=1;fontStyle=1;strokeWidth=3;fillColor=#008a00;strokeColor=#005700;fontColor=#ffffff;" parent="1" vertex="1">
          <mxGeometry x="884" y="830" width="200" height="170" as="geometry" />
        </mxCell>
        <mxCell id="36" value="" style="edgeStyle=none;noEdgeStyle=1;strokeColor=#000000;strokeWidth=3;fontColor=#000000;" parent="1" source="3" target="2" edge="1">
          <mxGeometry width="100" height="100" relative="1" as="geometry">
            <mxPoint x="-56" y="410" as="sourcePoint" />
            <mxPoint x="44" y="310" as="targetPoint" />
          </mxGeometry>
        </mxCell>
        <mxCell id="37" value="" style="edgeStyle=none;noEdgeStyle=1;strokeColor=#000000;strokeWidth=3;fontColor=#000000;" parent="1" source="4" target="2" edge="1">
          <mxGeometry width="100" height="100" relative="1" as="geometry">
            <mxPoint x="204" y="350" as="sourcePoint" />
            <mxPoint x="304" y="250" as="targetPoint" />
          </mxGeometry>
        </mxCell>
        <mxCell id="87" value="" style="edgeStyle=elbowEdgeStyle;elbow=vertical;strokeColor=#82b366;strokeWidth=4;entryX=0.5;entryY=0;entryDx=0;entryDy=0;exitX=1.006;exitY=0.44;exitDx=0;exitDy=0;exitPerimeter=0;fillColor=#d5e8d4;gradientColor=#97d077;" parent="1" source="10" edge="1">
          <mxGeometry width="100" height="100" relative="1" as="geometry">
            <mxPoint x="1091" y="965" as="sourcePoint" />
            <mxPoint x="444" y="200" as="targetPoint" />
            <Array as="points">
              <mxPoint x="1431" y="30" />
            </Array>
          </mxGeometry>
        </mxCell>
        <mxCell id="t6GLwA7AJKDqOUCnaVTW-122" value="Excell" style="whiteSpace=wrap;align=center;verticalAlign=middle;fontStyle=1;strokeWidth=3;fillColor=#e3c800;fontColor=#000000;strokeColor=#B09500;" parent="1" vertex="1">
          <mxGeometry x="-41" y="210" width="90" height="60" as="geometry" />
        </mxCell>
        <mxCell id="t6GLwA7AJKDqOUCnaVTW-123" value="" style="edgeStyle=none;noEdgeStyle=1;strokeColor=#000000;strokeWidth=3;exitX=1;exitY=1;exitDx=0;exitDy=0;fontColor=#000000;" parent="1" source="t6GLwA7AJKDqOUCnaVTW-122" target="2" edge="1">
          <mxGeometry width="100" height="100" relative="1" as="geometry">
            <mxPoint x="200" y="311" as="sourcePoint" />
            <mxPoint x="200" y="361" as="targetPoint" />
          </mxGeometry>
        </mxCell>
        <mxCell id="G-wLNNY91AZwd_SBp9Xe-105" value="" style="edgeStyle=orthogonalEdgeStyle;rounded=0;orthogonalLoop=1;jettySize=auto;html=1;strokeWidth=3;startArrow=none;startFill=0;exitX=1;exitY=0.5;exitDx=0;exitDy=0;fontColor=#000000;strokeColor=#CCCC00;" parent="1" source="G-wLNNY91AZwd_SBp9Xe-97" target="G-wLNNY91AZwd_SBp9Xe-98" edge="1">
          <mxGeometry relative="1" as="geometry">
            <mxPoint x="744" y="380.5" as="sourcePoint" />
          </mxGeometry>
        </mxCell>
        <mxCell id="G-wLNNY91AZwd_SBp9Xe-97" value="/sites (R/W)" style="whiteSpace=wrap;align=center;verticalAlign=middle;fontStyle=1;strokeWidth=3;fillColor=#e3c800;fontColor=#000000;strokeColor=#B09500;" parent="1" vertex="1">
          <mxGeometry x="614" y="350.5" width="109" height="60" as="geometry" />
        </mxCell>
        <mxCell id="G-wLNNY91AZwd_SBp9Xe-98" value="GET&#xa;microsoft.graph.sitePage (R/W)" style="whiteSpace=wrap;align=center;verticalAlign=middle;fontStyle=1;strokeWidth=3;fillColor=#e3c800;fontColor=#000000;strokeColor=#B09500;" parent="1" vertex="1">
          <mxGeometry x="784" y="350.5" width="229" height="60" as="geometry" />
        </mxCell>
        <mxCell id="Nzy61xiK_Wry65fHq-do-107" style="edgeStyle=orthogonalEdgeStyle;rounded=0;orthogonalLoop=1;jettySize=auto;html=1;entryX=1;entryY=0.5;entryDx=0;entryDy=0;strokeWidth=3;fontColor=#000000;strokeColor=#CCCC00;" parent="1" source="G-wLNNY91AZwd_SBp9Xe-100" target="G-wLNNY91AZwd_SBp9Xe-97" edge="1">
          <mxGeometry relative="1" as="geometry" />
        </mxCell>
        <mxCell id="G-wLNNY91AZwd_SBp9Xe-100" value="POST&#xa;microsoft.graph.sitePage (R/W)" style="whiteSpace=wrap;align=center;verticalAlign=middle;fontStyle=1;strokeWidth=3;fillColor=#e3c800;fontColor=#000000;strokeColor=#B09500;" parent="1" vertex="1">
          <mxGeometry x="784" y="419.5" width="229" height="60" as="geometry" />
        </mxCell>
        <mxCell id="G-wLNNY91AZwd_SBp9Xe-107" style="edgeStyle=orthogonalEdgeStyle;rounded=0;orthogonalLoop=1;jettySize=auto;html=1;exitX=0.5;exitY=1;exitDx=0;exitDy=0;entryX=0.197;entryY=0;entryDx=0;entryDy=0;entryPerimeter=0;strokeWidth=3;fontColor=#000000;strokeColor=#CCCC00;" parent="1" source="2" target="7" edge="1">
          <mxGeometry relative="1" as="geometry" />
        </mxCell>
        <mxCell id="KsxO16agAyIeRvrTX7ZI-92" style="edgeStyle=orthogonalEdgeStyle;rounded=0;orthogonalLoop=1;jettySize=auto;html=1;entryX=0;entryY=0.5;entryDx=0;entryDy=0;strokeWidth=3;endArrow=none;startFill=1;startArrow=classic;fontColor=#000000;strokeColor=#CCCC00;" parent="1" source="KsxO16agAyIeRvrTX7ZI-87" target="KsxO16agAyIeRvrTX7ZI-88" edge="1">
          <mxGeometry relative="1" as="geometry">
            <mxPoint x="744" y="278.5" as="sourcePoint" />
            <Array as="points">
              <mxPoint x="764" y="278.5" />
              <mxPoint x="764" y="210.5" />
            </Array>
          </mxGeometry>
        </mxCell>
        <mxCell id="KsxO16agAyIeRvrTX7ZI-93" style="edgeStyle=orthogonalEdgeStyle;rounded=0;orthogonalLoop=1;jettySize=auto;html=1;strokeWidth=3;endArrow=none;startFill=1;startArrow=classic;fontColor=#000000;strokeColor=#CCCC00;" parent="1" source="KsxO16agAyIeRvrTX7ZI-87" target="KsxO16agAyIeRvrTX7ZI-90" edge="1">
          <mxGeometry relative="1" as="geometry">
            <mxPoint x="744" y="278.5" as="sourcePoint" />
          </mxGeometry>
        </mxCell>
        <mxCell id="Nzy61xiK_Wry65fHq-do-106" style="edgeStyle=orthogonalEdgeStyle;rounded=0;orthogonalLoop=1;jettySize=auto;html=1;strokeWidth=3;fontColor=#000000;strokeColor=#CCCC00;" parent="1" source="KsxO16agAyIeRvrTX7ZI-87" target="8" edge="1">
          <mxGeometry relative="1" as="geometry" />
        </mxCell>
        <mxCell id="KsxO16agAyIeRvrTX7ZI-87" value="user | groups &#xa;(R)" style="whiteSpace=wrap;align=center;verticalAlign=middle;fontStyle=1;strokeWidth=3;fillColor=#e3c800;fontColor=#000000;strokeColor=#B09500;" parent="1" vertex="1">
          <mxGeometry x="614" y="248.5" width="109" height="60" as="geometry" />
        </mxCell>
        <mxCell id="KsxO16agAyIeRvrTX7ZI-88" value="GET&#xa;users.{user-id}.calendar" style="whiteSpace=wrap;align=center;verticalAlign=middle;fontStyle=1;strokeWidth=3;fillColor=#e3c800;fontColor=#000000;strokeColor=#B09500;" parent="1" vertex="1">
          <mxGeometry x="784" y="180.5" width="229" height="60" as="geometry" />
        </mxCell>
        <mxCell id="KsxO16agAyIeRvrTX7ZI-90" value="GET&#xa;groups.calendar" style="whiteSpace=wrap;align=center;verticalAlign=middle;fontStyle=1;strokeWidth=3;fillColor=#e3c800;fontColor=#000000;strokeColor=#B09500;" parent="1" vertex="1">
          <mxGeometry x="784" y="248.5" width="229" height="60" as="geometry" />
        </mxCell>
        <mxCell id="Nzy61xiK_Wry65fHq-do-87" value="&lt;p style=&quot;margin: 0px; margin-top: 4px; text-align: center; text-decoration: underline;&quot;&gt;&lt;strong&gt;Database&lt;/strong&gt;&lt;/p&gt;&lt;hr&gt;&lt;p style=&quot;margin: 0px; margin-left: 8px;&quot;&gt;Armazenar datas em que&lt;br&gt;ocorreram novas entradas&lt;br&gt;para auditoria futura&lt;br&gt;(caso necessário)&lt;/p&gt;&lt;p style=&quot;margin: 0px; margin-left: 8px;&quot;&gt;&lt;br&gt;&lt;/p&gt;&lt;p style=&quot;margin: 0px; margin-left: 8px;&quot;&gt;SQL ja serveria&lt;/p&gt;" style="verticalAlign=middle;align=center;overflow=fill;fontSize=12;fontFamily=Helvetica;html=1;rounded=1;fontStyle=1;strokeWidth=3;fillColor=#008a00;strokeColor=#005700;fontColor=#FFFFFF;" parent="1" vertex="1">
          <mxGeometry x="262.25" y="980" width="240" height="150" as="geometry" />
        </mxCell>
        <mxCell id="Nzy61xiK_Wry65fHq-do-93" style="edgeStyle=orthogonalEdgeStyle;rounded=0;orthogonalLoop=1;jettySize=auto;html=1;strokeWidth=3;fontColor=#000000;strokeColor=#CCCC00;" parent="1" source="Nzy61xiK_Wry65fHq-do-90" target="9" edge="1">
          <mxGeometry relative="1" as="geometry" />
        </mxCell>
        <mxCell id="Nzy61xiK_Wry65fHq-do-90" value="GET&#xa;/api/2/assignments/user/{username}" style="whiteSpace=wrap;align=center;verticalAlign=middle;fontStyle=1;strokeWidth=3;fillColor=#e3c800;fontColor=#000000;strokeColor=#B09500;" parent="1" vertex="1">
          <mxGeometry x="-415.5" y="700" width="229" height="60" as="geometry" />
        </mxCell>
        <mxCell id="Nzy61xiK_Wry65fHq-do-92" value="Para este ponto, avaliando os endpoints da API disponíveis&lt;br&gt;e comparando à nossa estrutura do Zeev&lt;br&gt;reparei que não existe nenhum ID separando as atividades por cliente&lt;br&gt;Isso pode inviabilizar os Gets por clientes específicos de forma fluida.&lt;br&gt;&lt;br&gt;Talvez possa fazer uma varredura por strings nos textos,&lt;br&gt;mas isso irá consumir mais recursos de processamento." style="text;html=1;align=center;verticalAlign=middle;resizable=0;points=[];autosize=1;strokeColor=none;fillColor=none;fontColor=#000000;" parent="1" vertex="1">
          <mxGeometry x="-501" y="580" width="400" height="110" as="geometry" />
        </mxCell>
        <mxCell id="Nzy61xiK_Wry65fHq-do-94" style="edgeStyle=orthogonalEdgeStyle;rounded=0;orthogonalLoop=1;jettySize=auto;html=1;entryX=0.73;entryY=0;entryDx=0;entryDy=0;entryPerimeter=0;strokeWidth=3;startArrow=classic;startFill=1;fontColor=#000000;strokeColor=#CCCC00;" parent="1" source="8" target="7" edge="1">
          <mxGeometry relative="1" as="geometry" />
        </mxCell>
        <mxCell id="RApJICq2-Tc3ue1AQRtq-87" value="" style="rounded=1;whiteSpace=wrap;html=1;arcSize=6;fillColor=#dae8fc;strokeColor=#6c8ebf;fontColor=#000000;" vertex="1" parent="1">
          <mxGeometry x="-520" y="920" width="730" height="320" as="geometry" />
        </mxCell>
        <mxCell id="RApJICq2-Tc3ue1AQRtq-88" value="Para este ponto, avaliando os endpoints da API disponíveis&lt;br&gt;e comparando à nossa estrutura do Zeev&lt;br&gt;reparei que não existe nenhum ID separando as atividades por cliente&lt;br&gt;Isso pode inviabilizar os Gets por clientes específicos de forma fluida.&lt;br&gt;&lt;br&gt;Talvez possa fazer uma varredura por strings nos textos,&lt;br&gt;mas isso irá consumir mais recursos de processamento." style="text;html=1;align=center;verticalAlign=middle;resizable=0;points=[];autosize=1;strokeColor=none;fillColor=none;fontColor=#000000;" vertex="1" parent="1">
          <mxGeometry x="-515" y="950" width="400" height="110" as="geometry" />
        </mxCell>
        <mxCell id="RApJICq2-Tc3ue1AQRtq-92" style="edgeStyle=orthogonalEdgeStyle;rounded=0;orthogonalLoop=1;jettySize=auto;html=1;endSize=10;strokeWidth=3;strokeColor=#CCCC00;" edge="1" parent="1" source="RApJICq2-Tc3ue1AQRtq-89" target="RApJICq2-Tc3ue1AQRtq-90">
          <mxGeometry relative="1" as="geometry" />
        </mxCell>
        <mxCell id="RApJICq2-Tc3ue1AQRtq-89" value="GET&#xa;/api/2/assignments/user/{username}" style="whiteSpace=wrap;align=center;verticalAlign=middle;fontStyle=1;strokeWidth=3;fillColor=#e3c800;fontColor=#000000;strokeColor=#B09500;" vertex="1" parent="1">
          <mxGeometry x="-429.5" y="1070" width="229" height="60" as="geometry" />
        </mxCell>
        <mxCell id="RApJICq2-Tc3ue1AQRtq-91" style="edgeStyle=orthogonalEdgeStyle;rounded=0;orthogonalLoop=1;jettySize=auto;html=1;exitX=1;exitY=0.5;exitDx=0;exitDy=0;strokeWidth=3;entryX=0.25;entryY=1;entryDx=0;entryDy=0;strokeColor=#CCCC00;" edge="1" parent="1" source="RApJICq2-Tc3ue1AQRtq-90" target="7">
          <mxGeometry relative="1" as="geometry">
            <mxPoint x="324" y="840" as="targetPoint" />
            <Array as="points">
              <mxPoint x="144" y="1100" />
              <mxPoint x="144" y="900" />
              <mxPoint x="324" y="900" />
              <mxPoint x="324" y="840" />
            </Array>
          </mxGeometry>
        </mxCell>
        <mxCell id="RApJICq2-Tc3ue1AQRtq-90" value="&lt;p style=&quot;margin: 0px; margin-top: 4px; text-align: center; text-decoration: underline;&quot;&gt;&lt;strong&gt;Movidesk&lt;/strong&gt;&lt;/p&gt;&lt;hr&gt;&lt;p style=&quot;margin: 0px; margin-left: 8px;&quot;&gt;Coletar chamados&amp;nbsp;&lt;br&gt;dos clientes&lt;br&gt;-------------------&lt;br&gt;Categorizar&lt;br&gt;(tipo de chamado,&lt;br&gt;prioridade, datas )&lt;br&gt;-------------------&lt;br&gt;Transferir chamados &lt;br&gt;para SharePoint&lt;/p&gt;" style="verticalAlign=middle;align=center;overflow=fill;fontSize=12;fontFamily=Helvetica;html=1;rounded=1;fontStyle=1;strokeWidth=3;fillColor=#008a00;strokeColor=#005700;fontColor=#FFFFFF;" vertex="1" parent="1">
          <mxGeometry x="-75" y="990" width="190" height="220" as="geometry" />
        </mxCell>
      </root>
    </mxGraphModel>
  </diagram>
</mxfile>
